<svg width="31" height="31" viewBox="0 0 31 31" fill="none" xmlns="http://www.w3.org/2000/svg">
<path d="M3.6741 7.34821C5.70325 7.34821 7.34821 5.70325 7.34821 3.6741C7.34821 1.64495 5.70325 0 3.6741 0C1.64495 0 0 1.64495 0 3.6741C0 5.70325 1.64495 7.34821 3.6741 7.34821Z" fill="white"/>
<path d="M10.8176 10.1332V30.517H17.1465V20.4368C17.1465 17.7769 17.6469 15.201 20.9449 15.201C24.1975 15.201 24.2378 18.242 24.2378 20.6047V30.5187H30.5701V19.3402C30.5701 13.8492 29.3879 9.62939 22.97 9.62939C19.8887 9.62939 17.8232 11.3204 16.9786 12.9206H16.893V10.1332H10.8176ZM0.503906 10.1332H6.84291V30.517H0.503906V10.1332Z" fill="white"/>
</svg>
