<svg width="35" height="27" viewBox="0 0 35 27" fill="none" xmlns="http://www.w3.org/2000/svg">
<path d="M34.0518 6.96647V21.6174C34.0518 24.1503 31.9812 26.2029 29.426 26.2029H5.19604C3.96922 26.2029 2.79265 25.7198 1.92516 24.8598C1.05766 23.9999 0.570313 22.8335 0.570312 21.6174V6.96647L16.7806 15.8056C17.111 15.9855 17.5119 15.9855 17.8415 15.8056L34.0518 6.9656V6.96647ZM29.426 1.97205e-08C30.6336 0.000111236 31.7932 0.468292 32.6572 1.30453C33.5211 2.14077 34.021 3.27878 34.05 4.47545L17.311 13.6028L0.572075 4.47458L0.573837 4.39597C0.62318 3.21357 1.13175 2.09587 1.99319 1.27658C2.85464 0.457302 4.00225 -0.000109662 5.19604 1.97205e-08H29.426Z" fill="white"/>
</svg>
