<svg width="30" height="30" viewBox="0 0 30 30" fill="none" xmlns="http://www.w3.org/2000/svg">
<path d="M14.604 7.08793C10.4707 7.08793 7.13493 10.4238 7.13493 14.5572C7.13493 18.6905 10.4707 22.0264 14.604 22.0264C18.7373 22.0264 22.0731 18.6905 22.0731 14.5572C22.0731 10.4238 18.7373 7.08793 14.604 7.08793ZM14.604 19.4116C11.931 19.4116 9.74966 17.2302 9.74966 14.5572C9.74966 11.8841 11.931 9.7027 14.604 9.7027C17.277 9.7027 19.4584 11.8841 19.4584 14.5572C19.4584 17.2302 17.277 19.4116 14.604 19.4116ZM22.379 5.04126C21.414 5.04126 20.6346 5.8206 20.6346 6.78566C20.6346 7.75073 21.414 8.53006 22.379 8.53006C23.3441 8.53006 24.1234 7.75437 24.1234 6.78566C24.1237 6.5565 24.0787 6.32954 23.9912 6.11777C23.9036 5.906 23.7751 5.71358 23.6131 5.55154C23.4511 5.38951 23.2587 5.26102 23.0469 5.17346C22.8351 5.0859 22.6082 5.04098 22.379 5.04126ZM29.1635 14.5572C29.1635 12.5469 29.1817 10.5549 29.0688 8.54827C28.9559 6.21755 28.4242 4.14904 26.7199 2.4447C25.0119 0.736716 22.9471 0.208663 20.6164 0.0957686C18.6062 -0.0171256 16.6142 0.00108322 14.6077 0.00108322C12.5975 0.00108322 10.6055 -0.0171256 8.59889 0.0957686C6.26821 0.208663 4.19974 0.740358 2.49543 2.4447C0.787484 4.15268 0.25944 6.21755 0.146548 8.54827C0.033656 10.5585 0.0518644 12.5506 0.0518644 14.5572C0.0518644 16.5638 0.033656 18.5594 0.146548 20.566C0.25944 22.8968 0.791126 24.9653 2.49543 26.6696C4.20338 28.3776 6.26821 28.9056 8.59889 29.0185C10.6091 29.1314 12.6011 29.1132 14.6077 29.1132C16.6179 29.1132 18.6099 29.1314 20.6164 29.0185C22.9471 28.9056 25.0156 28.3739 26.7199 26.6696C28.4278 24.9616 28.9559 22.8968 29.0688 20.566C29.1853 18.5594 29.1635 16.5674 29.1635 14.5572ZM25.9588 23.1444C25.6929 23.8072 25.3725 24.3025 24.859 24.8123C24.3455 25.3258 23.8539 25.6463 23.1911 25.9121C21.2756 26.6733 16.7271 26.5021 14.604 26.5021C12.4809 26.5021 7.92882 26.6733 6.0133 25.9158C5.35051 25.6499 4.85524 25.3294 4.34541 24.816C3.83193 24.3025 3.51146 23.8108 3.24562 23.148C2.48815 21.2288 2.65931 16.6803 2.65931 14.5572C2.65931 12.434 2.48815 7.88183 3.24562 5.96627C3.51146 5.30347 3.83193 4.80819 4.34541 4.29835C4.85888 3.7885 5.35051 3.46439 6.0133 3.19854C7.92882 2.44106 12.4809 2.61222 14.604 2.61222C16.7271 2.61222 21.2792 2.44106 23.1948 3.19854C23.8575 3.46439 24.3528 3.78486 24.8626 4.29835C25.3761 4.81183 25.6966 5.30347 25.9624 5.96627C26.7199 7.88183 26.5487 12.434 26.5487 14.5572C26.5487 16.6803 26.7199 21.2288 25.9588 23.1444Z" fill="white"/>
</svg>
