<svg width="35" height="28" viewBox="0 0 35 28" fill="none" xmlns="http://www.w3.org/2000/svg">
<path d="M34.7582 3.28202C33.5066 3.83664 32.162 4.21138 30.7485 4.38076C32.207 3.50805 33.2982 2.13451 33.8184 0.516422C32.4481 1.33035 30.9484 1.90326 29.3844 2.21026C28.3327 1.08733 26.9397 0.343031 25.4216 0.0929247C23.9036 -0.157182 22.3454 0.100895 20.9891 0.827088C19.6327 1.55328 18.5541 2.70696 17.9206 4.10901C17.2871 5.51105 17.1342 7.08303 17.4856 8.58087C14.7091 8.44146 11.9928 7.71979 9.51324 6.46269C7.03364 5.20559 4.84608 3.44115 3.09253 1.28389C2.49294 2.31818 2.14818 3.51736 2.14818 4.79448C2.14751 5.94418 2.43063 7.07627 2.97243 8.09031C3.51422 9.10435 4.29794 9.96898 5.25404 10.6075C4.14522 10.5722 3.06086 10.2726 2.09121 9.73358V9.82352C2.0911 11.436 2.64888 12.9989 3.6699 14.247C4.69093 15.495 6.11231 16.3514 7.69286 16.6708C6.66424 16.9492 5.58582 16.9902 4.53903 16.7907C4.98497 18.1782 5.85362 19.3915 7.02337 20.2607C8.19312 21.13 9.60542 21.6117 11.0625 21.6384C8.58899 23.5802 5.53418 24.6335 2.38951 24.6288C1.83246 24.629 1.27589 24.5965 0.722656 24.5314C3.91467 26.5837 7.63041 27.673 11.4253 27.6687C24.2715 27.6687 31.2941 17.0291 31.2941 7.80141C31.2941 7.50162 31.2866 7.19882 31.2731 6.89903C32.6391 5.91117 33.8182 4.6879 34.7552 3.28652L34.7582 3.28202Z" fill="white"/>
</svg>
